# xmcd
#
# Track frame offsets:
#	150
#	14437
#	28620
#	42170
#	57765
#	76127
#	98282
#	113298
#	129801
#	143876
#	158619
#	172527
#	186648
#	201410
#	217944
#	229924
#	243073
#	261097
#	276962
#	292864
#
# Disc length: 4118 seconds
#
# Revision: 0
# Processed by: cddbd v1.5PL3 Copyright (c) Steve Scherf et al.
# Submitted via: EasyCDDAExtractor 5.0.5.1
#
DISCID=f9101414
DTITLE=Various Artist - Tanssi Suosikit
DYEAR=2004
DGENRE=Alternative
TTITLE0=Eri Esittäjiä - Sinut löysin uudestaan - Eino Grön
TTITLE1=Anna tunteen tulla - Erkki Räsänen
TTITLE2=Kultaiset korvarenkaat - Arja Koriseva
TTITLE3=Kerro jos luokse tulla mä saan - Tomi Markkola
TTITLE4=Syksy - Heidi Kyrö
TTITLE5=Lia - Jari Sillanpää
TTITLE6=Mustat tanssikengät - Nasma Team
TTITLE7=Kuuma sinkku - Mira Kunnasluoto
TTITLE8=Teit minusta autiomaan - Topi Sorsakoski
TTITLE9=Onnen lainaksi sain - Mikko Mäkeläinen
TTITLE10=Vähän liian pitkään - Eija Kantola
TTITLE11=Anna mun unohtaa - Tomi Markkola
TTITLE12=Tiedän määränpään - Saija Varjus
TTITLE13=Häävälssi - Sauli Lehtonen
TTITLE14=Sheila - Solistiyhtye Suomi
TTITLE15=Suurin onni - Korsuorkesteri
TTITLE16=Myrskyn jälkeen - Kari Tapio
TTITLE17=Paahdetut kastanjat - Mikko Mäkeläinen
TTITLE18=Lämmin, hellä pehmoinen - Matti Esko
TTITLE19=Vierelles aina jään - Tarja Ylitalo
EXTD=
EXTT0=
EXTT1=
EXTT2=
EXTT3=
EXTT4=
EXTT5=
EXTT6=
EXTT7=
EXTT8=
EXTT9=
EXTT10=
EXTT11=
EXTT12=
EXTT13=
EXTT14=
EXTT15=
EXTT16=
EXTT17=
EXTT18=
EXTT19=
PLAYORDER=
